<?xml version="1.0" encoding="UTF-8"?>
<!DOCTYPE svg PUBLIC "-//W3C//DTD SVG 1.1//EN" "http://www.w3.org/Graphics/SVG/1.1/DTD/svg11.dtd">
<!-- Creator: CorelDRAW X7 -->
<svg xmlns="http://www.w3.org/2000/svg" xml:space="preserve" width="210mm" height="297mm" version="1.1" style="shape-rendering:geometricPrecision; text-rendering:geometricPrecision; image-rendering:optimizeQuality; fill-rule:evenodd; clip-rule:evenodd"
viewBox="0 0 21000 29700"
 xmlns:xlink="http://www.w3.org/1999/xlink">
 <defs>
  <style type="text/css">
   <![CDATA[
    .str0 {stroke:#FF6C00;stroke-width:84.66;stroke-linecap:round;stroke-linejoin:round}
    .fil0 {fill:none}
    .fil1 {fill:#FF6C00}
   ]]>
  </style>
 </defs>
 <g id="Capa_x0020_1">
  <metadata id="CorelCorpID_0Corel-Layer"/>
  <path class="fil0 str0" d="M6040 14602c0,69 -17,133 -49,191 -33,59 -88,103 -165,135 91,30 159,78 204,143 45,64 67,138 67,219 0,146 -52,254 -157,324 -105,71 -254,106 -447,106 -68,0 -133,-3 -196,-8 -63,-6 -124,-17 -181,-33 -68,-19 -101,-56 -101,-110l0 -1228c0,-47 26,-77 79,-91 54,-16 112,-27 173,-33 61,-6 127,-8 199,-8 181,0 322,32 423,96 100,64 151,163 151,297l0 0zm-833 412l0 519c38,8 83,14 133,19 51,5 101,7 153,7 132,0 233,-22 302,-66 69,-44 103,-113 103,-208 0,-83 -31,-149 -92,-198 -62,-48 -153,-73 -273,-73l-326 0 0 0zm0 -157l326 0c101,0 178,-23 230,-67 52,-45 78,-106 78,-183 0,-158 -125,-237 -375,-237 -56,0 -104,2 -145,6 -41,4 -79,9 -114,15l0 466 0 0zm1342 395c43,210 181,314 413,314 67,0 128,-11 182,-33 54,-23 98,-47 130,-72 38,22 57,53 57,91 0,22 -10,44 -30,65 -20,21 -47,39 -81,55 -35,16 -75,29 -120,38 -46,10 -95,15 -148,15 -186,0 -332,-51 -441,-151 -108,-101 -162,-249 -162,-442 0,-91 14,-173 40,-243 26,-71 63,-131 110,-181 48,-50 104,-88 170,-114 65,-26 137,-40 213,-40 72,0 139,12 200,36 60,24 113,58 157,102 43,44 77,96 102,156 25,59 37,125 37,197 0,36 -8,61 -24,76 -16,15 -38,24 -67,28l-738 103 0 0zm331 -542c-98,0 -178,34 -242,102 -64,67 -98,165 -101,291l660 -91c-8,-88 -39,-161 -93,-217 -53,-56 -128,-85 -224,-85l0 0zm914 542c43,210 180,314 412,314 68,0 128,-11 183,-33 54,-23 97,-47 129,-72 39,22 58,53 58,91 0,22 -10,44 -30,65 -20,21 -47,39 -82,55 -34,16 -74,29 -120,38 -45,10 -94,15 -147,15 -186,0 -333,-51 -441,-151 -108,-101 -162,-249 -162,-442 0,-91 13,-173 40,-243 26,-71 63,-131 110,-181 48,-50 104,-88 170,-114 65,-26 136,-40 213,-40 72,0 139,12 199,36 61,24 114,58 158,102 44,44 78,96 103,156 25,59 37,125 37,197 0,36 -8,61 -24,76 -16,15 -38,24 -67,28l-739 103 0 0zm331 -542c-98,0 -179,34 -243,102 -64,67 -97,165 -100,291l660 -91c-8,-88 -39,-161 -93,-217 -53,-56 -128,-85 -224,-85l0 0zm970 979c-8,3 -20,7 -36,11 -16,4 -34,6 -53,6 -69,0 -104,-29 -104,-87l0 -813c0,-36 7,-66 21,-87 14,-22 36,-43 68,-64 42,-27 98,-51 170,-71 71,-20 151,-30 241,-30 128,0 192,32 192,96 0,16 -3,31 -7,45 -5,13 -12,25 -20,35 -16,-4 -36,-7 -62,-10 -26,-3 -51,-5 -77,-5 -73,0 -138,8 -194,23 -56,15 -103,32 -139,53l0 898 0 0zm1435 -516l0 516c-10,3 -22,7 -38,11 -16,4 -34,6 -53,6 -71,0 -106,-30 -106,-89l0 -1276c0,-26 7,-45 19,-59 13,-14 33,-24 60,-32 47,-15 103,-25 170,-32 66,-6 130,-9 193,-9 203,0 351,43 445,128 94,86 141,201 141,347 0,149 -49,268 -145,355 -96,89 -244,134 -444,134l-242 0 0 0zm230 -164c128,0 228,-26 298,-79 70,-53 106,-133 106,-244 0,-108 -34,-188 -102,-238 -68,-51 -166,-76 -292,-76 -43,0 -86,2 -128,6 -43,4 -81,9 -114,16l0 615 232 0zm1882 130c0,90 -12,170 -38,242 -26,73 -62,134 -109,185 -48,52 -105,91 -172,118 -67,27 -142,41 -226,41 -83,0 -158,-14 -225,-41 -67,-27 -125,-66 -173,-118 -48,-51 -85,-112 -110,-185 -26,-72 -39,-152 -39,-242 0,-90 13,-170 40,-242 26,-71 63,-133 111,-184 48,-51 106,-91 173,-118 67,-27 142,-41 223,-41 82,0 156,14 224,41 67,27 124,67 171,118 47,51 84,113 111,184 26,72 39,152 39,242zm-545 -426c-108,0 -194,37 -256,113 -63,74 -94,179 -94,313 0,136 31,241 92,316 62,74 148,111 258,111 111,0 196,-37 257,-112 61,-76 91,-181 91,-315 0,-134 -30,-239 -92,-313 -62,-76 -147,-113 -256,-113l0 0zm2782 258c0,-90 -25,-154 -76,-196 -50,-41 -118,-62 -203,-62 -64,0 -120,8 -170,24 -50,16 -92,34 -127,55l0 897c-8,3 -20,7 -36,11 -16,4 -34,6 -53,6 -69,0 -103,-29 -103,-87l0 -817c0,-34 7,-62 20,-83 14,-22 37,-43 71,-64 42,-25 97,-49 166,-69 68,-21 146,-32 232,-32 146,0 261,33 345,99 84,65 126,169 126,308l0 728c-8,3 -20,7 -37,11 -17,4 -34,6 -52,6 -69,0 -103,-29 -103,-87l0 -648 0 0zm931 754c-112,0 -203,-25 -272,-75 -70,-49 -105,-132 -105,-247l0 -1139c8,-3 21,-7 38,-11 16,-4 34,-6 54,-6 67,0 100,29 100,87l0 276 394 0c5,8 10,18 15,32 4,14 7,28 7,44 0,55 -24,82 -72,82l-344 0 0 623c0,64 18,109 54,136 36,26 87,39 153,39 27,0 57,-4 91,-14 34,-10 62,-21 84,-34 10,10 19,22 27,36 8,15 12,32 12,51 0,35 -21,64 -63,86 -41,23 -99,34 -173,34l0 0z"/>
  <path class="fil1" d="M13090 15597l574 0c3,4 0,-2 4,7 2,5 2,6 4,11 9,25 17,39 2,62 -22,32 -47,23 -83,23 -142,0 -285,0 -427,0 -37,0 -61,9 -84,-23 -15,-22 -7,-45 5,-70l5 -10zm285 -1669l5 0c87,1 175,42 222,115 91,-19 180,12 234,90 27,39 40,83 38,131 -1,47 10,98 15,147 18,186 -6,432 -53,613 -55,213 -143,317 -57,550 19,52 27,85 4,138 -17,40 -44,69 -82,88 -17,8 -48,12 -85,15l-235 0 -243 0c-36,-3 -66,-7 -82,-14 -90,-42 -119,-134 -82,-224 37,-93 45,-197 25,-294 -12,-55 -58,-166 -81,-255 -50,-191 -70,-415 -52,-612 5,-54 14,-102 14,-156 0,-51 11,-88 40,-130 52,-76 144,-106 233,-87 48,-74 135,-114 222,-115l0 0zm-388 443l332 0c0,69 -10,176 14,236 24,61 86,103 151,103 71,0 126,-35 157,-98 22,-47 13,-184 13,-241l113 0c0,26 11,91 11,147 0,48 4,112 0,158 -19,237 -47,307 -117,519 -42,126 -25,182 -25,288 -60,0 -498,3 -517,-3 -6,-44 27,-106 -24,-282 -11,-37 -29,-79 -41,-117 -36,-108 -77,-294 -78,-404 -1,-77 -5,-66 0,-155 1,-13 -1,-28 0,-41 1,-14 3,-21 4,-37 0,-24 7,-51 7,-73l0 0zm773 -115c-226,0 -217,-26 -217,144 0,40 8,140 -9,171 -22,40 -98,37 -98,-34 1,-42 9,-226 -12,-257 -18,-27 -40,-24 -69,-24 -120,1 -240,0 -361,0 0,-47 18,-74 60,-94 60,-29 91,12 135,6 47,-7 58,-128 189,-128 36,0 82,17 109,44 16,16 23,24 35,43 11,18 17,35 41,40 42,9 75,-34 134,-6 42,18 63,49 63,95l0 0z"/>
 </g>
</svg>
