<?xml version="1.0" encoding="UTF-8"?>
<!DOCTYPE svg PUBLIC "-//W3C//DTD SVG 1.1//EN" "http://www.w3.org/Graphics/SVG/1.1/DTD/svg11.dtd">
<!-- Creator: CorelDRAW X7 -->
<svg xmlns="http://www.w3.org/2000/svg" xml:space="preserve" width="114.3mm" height="23.7066mm" version="1.1" style="shape-rendering:geometricPrecision; text-rendering:geometricPrecision; image-rendering:optimizeQuality; fill-rule:evenodd; clip-rule:evenodd"
viewBox="0 0 11430 2371"
 xmlns:xlink="http://www.w3.org/1999/xlink">
 <defs>
  <style type="text/css">
   <![CDATA[
    .str0 {stroke:#FF6C00;stroke-width:84.66;stroke-linecap:round;stroke-linejoin:round}
    .fil0 {fill:none}
    .fil1 {fill:#FF6C00}
   ]]>
  </style>
 </defs>
 <g id="Capa_x0020_1">
  <metadata id="CorelCorpID_0Corel-Layer"/>
  <path class="fil0 str0" d="M1149 947c0,70 -17,135 -50,193 -33,60 -89,106 -167,138 92,31 161,79 207,145 45,65 68,140 68,222 0,149 -53,258 -160,329 -106,72 -257,108 -453,108 -69,0 -135,-3 -199,-8 -64,-7 -126,-18 -183,-34 -69,-19 -103,-57 -103,-112l0 -1246c0,-48 27,-78 80,-92 55,-17 114,-28 176,-34 62,-6 129,-8 202,-8 183,0 326,32 429,97 101,65 153,166 153,302l0 0zm-845 419l0 526c38,8 84,14 135,19 52,5 102,7 155,7 134,0 236,-22 306,-67 70,-44 105,-114 105,-211 0,-84 -32,-151 -94,-200 -62,-49 -155,-74 -276,-74l-331 0 0 0zm0 -161l331 0c102,0 180,-23 233,-68 53,-45 79,-107 79,-185 0,-161 -127,-241 -380,-241 -57,0 -106,2 -147,6 -42,4 -81,10 -116,16l0 472 0 0zm1361 402c44,213 184,318 419,318 68,0 130,-11 185,-33 54,-23 99,-48 131,-73 39,22 58,54 58,92 0,23 -10,45 -30,66 -20,21 -48,40 -82,56 -36,16 -76,29 -122,38 -47,11 -96,16 -150,16 -189,0 -337,-52 -447,-153 -110,-103 -165,-253 -165,-449 0,-92 14,-175 41,-247 26,-72 64,-133 111,-184 49,-51 106,-89 173,-115 66,-27 139,-41 216,-41 73,0 141,12 203,36 61,25 114,59 159,104 45,45 79,97 104,158 26,61 38,128 38,201 0,36 -8,62 -24,77 -17,15 -39,24 -68,28l-750 105 0 0zm336 -551c-100,0 -181,35 -246,104 -65,69 -99,168 -102,296l669 -93c-8,-89 -39,-163 -94,-220 -54,-57 -130,-87 -227,-87l0 0zm928 551c44,213 182,318 418,318 69,0 130,-11 185,-33 55,-23 99,-48 131,-73 40,22 59,54 59,92 0,23 -10,45 -30,66 -21,21 -48,40 -84,56 -34,16 -75,29 -121,38 -46,11 -96,16 -149,16 -189,0 -338,-52 -448,-153 -109,-103 -164,-253 -164,-449 0,-92 13,-175 41,-247 26,-72 64,-133 111,-184 49,-51 106,-89 173,-115 66,-27 138,-41 216,-41 73,0 141,12 202,36 61,25 115,59 160,104 44,45 79,97 104,158 26,61 38,128 38,201 0,36 -8,62 -25,77 -16,15 -38,24 -68,28l-749 105 0 0zm336 -551c-100,0 -182,35 -247,104 -65,69 -98,168 -101,296l669 -93c-8,-89 -39,-163 -94,-220 -54,-57 -130,-87 -227,-87l0 0zm984 994c-9,3 -21,7 -37,11 -16,4 -34,6 -54,6 -70,0 -105,-29 -105,-88l0 -825c0,-37 7,-67 21,-89 14,-22 37,-43 69,-65 43,-27 99,-51 172,-72 72,-20 154,-30 245,-30 130,0 195,32 195,97 0,17 -3,32 -7,46 -5,13 -13,25 -21,35 -16,-4 -36,-7 -63,-10 -26,-3 -51,-5 -78,-5 -74,0 -140,8 -196,24 -57,15 -105,33 -141,54l0 911 0 0zm1455 -523l0 523c-10,3 -22,7 -38,11 -17,4 -35,6 -54,6 -72,0 -108,-30 -108,-90l0 -1295c0,-26 7,-46 20,-60 13,-14 33,-24 60,-32 48,-16 105,-26 173,-33 67,-6 132,-9 196,-9 205,0 356,44 451,130 95,87 143,204 143,352 0,151 -50,272 -147,361 -97,90 -248,136 -450,136l-246 0 0 0zm233 -167c130,0 232,-26 303,-80 71,-53 107,-136 107,-248 0,-110 -34,-191 -103,-242 -69,-51 -169,-77 -297,-77 -43,0 -87,2 -129,6 -44,4 -83,10 -116,17l0 624 235 0zm1909 132c0,92 -12,173 -38,246 -27,74 -63,136 -111,187 -49,53 -106,93 -174,120 -68,27 -144,42 -230,42 -84,0 -160,-15 -228,-42 -68,-27 -127,-67 -175,-120 -49,-51 -86,-113 -112,-187 -26,-73 -39,-154 -39,-246 0,-91 13,-172 40,-245 27,-73 64,-136 113,-188 49,-52 107,-92 175,-119 68,-28 144,-42 226,-42 84,0 159,14 228,42 68,27 125,67 173,119 48,52 85,115 113,188 26,73 39,154 39,245zm-553 -433c-109,0 -196,38 -259,115 -64,76 -96,182 -96,318 0,138 32,245 94,321 63,75 150,112 261,112 113,0 199,-37 261,-113 62,-77 92,-184 92,-320 0,-136 -30,-242 -93,-318 -63,-77 -149,-115 -260,-115l0 0zm2823 263c0,-91 -25,-157 -77,-200 -51,-41 -120,-63 -206,-63 -65,0 -121,8 -172,25 -51,16 -93,34 -129,55l0 911c-8,3 -20,7 -36,11 -17,4 -35,6 -54,6 -70,0 -105,-29 -105,-88l0 -830c0,-34 7,-62 21,-84 14,-22 37,-43 72,-65 42,-25 98,-49 168,-70 69,-21 148,-32 235,-32 148,0 265,33 350,100 85,66 128,172 128,314l0 738c-8,3 -20,7 -38,11 -17,4 -34,6 -52,6 -70,0 -105,-29 -105,-88l0 -657 0 0zm945 765c-114,0 -206,-26 -276,-76 -71,-50 -107,-134 -107,-251l0 -1156c8,-3 21,-7 39,-11 16,-4 34,-6 54,-6 68,0 102,29 102,88l0 280 400 0c5,8 10,18 15,32 4,14 7,29 7,45 0,56 -24,83 -73,83l-349 0 0 633c0,65 18,110 55,138 36,26 88,39 155,39 27,0 58,-4 92,-14 35,-10 63,-21 85,-34 11,10 20,22 28,36 8,15 12,33 12,52 0,35 -21,65 -64,87 -42,24 -100,35 -175,35l0 0z"/>
  <path class="fil1" d="M8301 1957l583 0c3,4 0,-2 4,7 2,5 2,6 4,11 9,25 17,40 2,63 -22,32 -49,23 -85,23 -144,0 -289,0 -433,0 -38,0 -62,9 -85,-23 -16,-22 -8,-46 5,-71l5 -10zm289 -1694l5 0c88,1 177,43 225,117 93,-20 184,12 238,91 28,39 41,84 39,133 -1,47 10,99 15,149 18,189 -6,438 -54,623 -55,216 -145,321 -57,558 19,52 27,86 4,140 -18,40 -45,70 -84,89 -17,8 -48,12 -86,15l-239 0 -247 0c-36,-3 -67,-7 -83,-14 -91,-43 -121,-136 -83,-227 38,-95 46,-200 25,-299 -12,-55 -58,-168 -82,-258 -51,-195 -71,-422 -53,-622 6,-55 15,-103 15,-158 0,-52 11,-90 40,-132 53,-77 146,-108 237,-88 48,-75 136,-116 225,-117l0 0zm-394 449l337 0c0,70 -10,179 14,240 24,62 87,104 153,104 72,0 128,-35 160,-99 22,-48 13,-187 13,-245l115 0c0,27 12,93 12,149 0,49 4,114 0,161 -20,241 -48,312 -120,527 -43,128 -26,185 -26,292 -60,0 -505,3 -524,-3 -6,-44 27,-107 -24,-286 -11,-37 -30,-80 -42,-119 -36,-109 -78,-299 -79,-410 -1,-78 -5,-67 0,-158 1,-13 -1,-28 0,-41 1,-14 3,-21 4,-38 0,-24 7,-51 7,-74l0 0zm785 -116c-230,0 -221,-27 -221,146 0,40 8,142 -9,173 -22,41 -99,38 -99,-34 1,-43 9,-230 -13,-261 -18,-27 -40,-24 -70,-24 -121,1 -243,0 -366,0 0,-48 19,-75 61,-96 61,-29 92,13 137,6 48,-7 59,-129 192,-129 36,0 83,17 110,44 17,16 24,25 36,44 11,18 17,35 41,40 43,10 77,-34 137,-6 43,19 64,50 64,97l0 0z"/>
 </g>
</svg>
